<?xml version="1.0" encoding="utf-8"?>
<!-- Generator: Adobe Illustrator 21.1.0, SVG Export Plug-In . SVG Version: 6.00 Build 0)  -->
<svg version="1.1" id="Layer_1" xmlns="http://www.w3.org/2000/svg" xmlns:xlink="http://www.w3.org/1999/xlink" x="0px" y="0px"
	 viewBox="0 0 417 104" style="enable-background:new 0 0 417 104;" xml:space="preserve">
<style type="text/css">
	.st0{fill:#011016;}
	.st1{fill:url(#SVGID_1_);}
	.st2{fill:url(#SVGID_2_);}
	.st3{fill:none;}
</style>
<g>
	<path class="st0" d="M225.5,57.6c0,2.6-0.8,4.5-2.3,5.6c-1.5,1.2-3.5,1.8-5.8,1.8s-4.2-0.6-5.8-1.8c-1.5-1.2-2.3-3.1-2.3-5.6V36.5
		h-8v23c0,3.8,1.5,7,4.6,9.6c3,2.6,6.9,3.9,11.4,3.9s8.4-1.3,11.4-3.9s4.6-5.8,4.6-9.6v-23h-8v21.1H225.5z"/>
	<path class="st0" d="M266.8,44.4c3.1,0,5.8,0.9,8.2,2.8l0.3,0.2l5.3-5.8l-0.3-0.3c-3.7-3.2-8.3-4.9-13.5-4.9s-9.6,1.8-13.1,5.2
		c-3.5,3.5-5.3,7.8-5.3,12.9c0,5.2,1.8,9.6,5.3,13.1s7.9,5.2,13.1,5.2s9.8-1.6,13.5-4.9l0.3-0.3l-5.3-5.8L275,62
		c-2.3,1.8-5,2.7-8.1,2.7s-5.6-0.9-7.5-2.8c-1.9-1.9-2.9-4.4-2.9-7.6c0-3,1-5.4,2.8-7.3C261.2,45.4,263.7,44.5,266.8,44.4"/>
	<polygon class="st0" points="295.4,44 307.4,44 307.4,73 315.4,73 315.4,44 327.4,44 327.4,36.5 295.4,36.5 	"/>
	<path class="st0" d="M365.2,57.6c0,2.6-0.8,4.5-2.3,5.6c-1.5,1.2-3.5,1.8-5.8,1.8s-4.2-0.6-5.8-1.8c-1.5-1.2-2.3-3.1-2.3-5.6V36.5
		h-8v23c0,3.8,1.5,7,4.6,9.6c3,2.6,6.9,3.9,11.4,3.9c4.6,0,8.4-1.3,11.4-3.9s4.6-5.8,4.6-9.6v-23h-8v21.1H365.2z"/>
	<path class="st0" d="M412,53.9c-2.5-1.7-5.4-2.7-8.4-3c-2.8-0.5-4.5-1.1-5.3-2c-0.7-0.8-0.7-1.8,0-3s2.5-1.8,5.2-1.8
		s4.9,0.9,6.4,2.7l0.3,0.3l5.4-5.3l-0.3-0.3c-1.6-1.6-3.4-2.8-5.3-3.7c-1.9-0.8-4.5-1.2-7.9-1.2c-2.9,0-5.8,1-8.6,2.9
		c-2.8,2-4.3,4.6-4.3,7.9c0,3.6,1.3,6.2,3.8,7.7c2.4,1.5,5.2,2.3,8.1,2.7c3.1,0.3,5,1.1,5.7,2.3s0.7,2.4,0,3.7
		c-0.7,1.2-2.6,1.8-5.6,1.8c-3.7-0.3-6.4-1.4-7.9-3.2l-0.3-0.3l-5.4,5.3l0.3,0.3c1.6,1.6,3.6,2.9,5.9,3.9s5.1,1.5,8.5,1.5
		c3.6,0,6.8-1.1,9.5-3.2s4.1-4.7,4.1-7.7C415.9,58.4,414.6,55.6,412,53.9"/>
	<polygon class="st0" points="173.1,36.5 165.4,36.5 150.7,73 159.2,73 161.4,67.6 161.4,67.6 168.1,50.6 169.5,47.5 174.2,59.6 
		174.1,59.6 179.3,73 187.8,73 	"/>
</g>
<g>
	<g>
		<linearGradient id="SVGID_1_" gradientUnits="userSpaceOnUse" x1="78.1" y1="51.5" x2="123.8" y2="51.5">
			<stop  offset="0" style="stop-color:#009BFF"/>
			<stop  offset="9.474040e-03" style="stop-color:#009BFF"/>
			<stop  offset="0.9988" style="stop-color:#00E8FF"/>
			<stop  offset="1" style="stop-color:#00E8FF"/>
		</linearGradient>
		<polygon class="st1" points="100.7,71 123.8,32 78.1,32 		"/>
		<g>
			<linearGradient id="SVGID_2_" gradientUnits="userSpaceOnUse" x1="0" y1="52" x2="119.5" y2="52">
				<stop  offset="0" style="stop-color:#002D78"/>
				<stop  offset="0.2287" style="stop-color:#002D78"/>
				<stop  offset="1" style="stop-color:#014FBD"/>
			</linearGradient>
			<polygon class="st2" points="119.5,104 59.8,104 0,104 29.9,52 59.8,0 77.9,31.6 55.2,71 100.5,71 			"/>
			<line class="st3" x1="77.9" y1="31.6" x2="77.9" y2="31.6"/>
		</g>
	</g>
</g>
</svg>
