<?xml version="1.0" encoding="utf-8"?>
<!-- Generator: Adobe Illustrator 21.1.0, SVG Export Plug-In . SVG Version: 6.00 Build 0)  -->
<svg version="1.1" id="Layer_1" xmlns="http://www.w3.org/2000/svg" xmlns:xlink="http://www.w3.org/1999/xlink" x="0px" y="0px"
	 viewBox="0 0 512 189" style="enable-background:new 0 0 512 189;" xml:space="preserve">
<style type="text/css">
	.st0{fill:#FFFFFF;}
	.st1{fill:#A9C300;}
</style>
<path class="st0" d="M415.6,6.2c-50.5,0.1-91.4,40.9-91.4,91.4c0,50.5,41,91.4,91.4,91.4c50.5-0.1,91.4-41,91.4-91.5
	C507,47.1,466,6.1,415.6,6.2z M415.7,163.5c-36.6,0.1-66.1-29.2-66-65.9c0-36.5,29.2-65.8,65.7-65.9c36.7-0.1,66,29.1,66.1,65.8
	C481.6,134.1,452.5,163.3,415.7,163.5z"/>
<path class="st0" d="M198.8,53.2c25.1-27.7,71.7-28.8,95.2-2.6c0.2-0.2,0.3-0.3,0.3-0.4c3.4-7.4,6.7-14.8,10.1-22.2
	c0.4-0.9,0.2-1.5-0.5-2c-4-2.9-7.8-6.2-12.1-8.6c-22.5-12.5-46.3-14.5-70.7-7c-27.6,8.5-48.9,28.9-58.8,54.5l19.9,40.2
	C180.1,86.8,185.6,67.8,198.8,53.2z"/>
<path class="st0" d="M262.1,187.9c15.6-2.4,29.6-8.4,41.6-18.8c0.9-0.8,1.2-1.4,0.6-2.6c-3.3-7-6.4-14-9.6-21
	c-0.2-0.4-0.5-0.8-0.7-1.2c-23,25.9-67.1,25.1-92,0.9l19.7,39.8C234.6,188.9,248.4,190,262.1,187.9z"/>
<path class="st1" d="M95.9,15c-1.7-3.7-3.4-7.3-5.1-11c-1.8,3.8-3.5,7.5-5.3,11.3c-2.3,4.9-4.5,9.7-6.8,14.6
	c-24.4,52.4-48.6,104.6-73,156.9c0.8,0,1.3,0,1.8,0c8,0,16.1,0,24.1,0c1.3,0,1.9-0.4,2.4-1.6c5.2-11.7,47.1-103.8,56.7-124.9
	c9.6,21.1,18.9,41.7,28.4,62.6c-12.8,0-25.5,0-38.2,0l9.8,25.6c12.8,0,25.6,0,38.4,0c1.3,0,1.9,0.4,2.5,1.6
	c5.2,11.7,10.6,23.4,15.8,35.2c0.5,1.2,1.1,1.6,2.4,1.6c0.7,0,1.3,0,2,0c7.4,0,14.7,0,22.1,0c0.5,0,1.1,0,1.9,0
	C149.2,129.6,122.6,72.4,95.9,15z"/>
</svg>
