<?xml version="1.0" encoding="utf-8"?>
<!-- Generator: Adobe Illustrator 21.1.0, SVG Export Plug-In . SVG Version: 6.00 Build 0)  -->
<svg version="1.1" id="Capa_1" xmlns="http://www.w3.org/2000/svg" xmlns:xlink="http://www.w3.org/1999/xlink" x="0px" y="0px"
	 viewBox="0 0 106 39.3" style="enable-background:new 0 0 106 39.3;" xml:space="preserve">
<style type="text/css">
	.st0{fill:#FFFFFF;}
	.st1{fill:#A9C300;}
</style>
<g>
	<path class="st0" d="M86.2,1.1c-10.5,0-19.1,8.5-19,19.1c0,10.5,8.6,19.1,19.1,19.1s19-8.5,19-19.1C105.2,9.6,96.7,1.1,86.2,1.1z
		 M86.2,33.9c-7.6,0-13.8-6.1-13.8-13.7S78.5,6.5,86.1,6.5c7.7,0,13.8,6.1,13.8,13.7C100,27.7,93.9,33.8,86.2,33.9z"/>
	<path class="st0" d="M41,10.9c5.2-5.8,14.9-6,19.8-0.5l0.1-0.1c0.7-1.5,1.4-3.1,2.1-4.6c0.1-0.2,0-0.3-0.1-0.4
		c-0.8-0.6-1.6-1.3-2.5-1.8c-4.7-2.6-9.6-3-14.7-1.5C40,3.8,35.5,8,33.4,13.4l4.1,8.4C37.1,17.9,38.2,13.9,41,10.9z"/>
	<path class="st0" d="M54.2,39c3.2-0.5,6.2-1.8,8.7-3.9c0.2-0.2,0.2-0.3,0.1-0.5c-0.7-1.5-1.3-2.9-2-4.4c0-0.1-0.1-0.2-0.1-0.3
		c-4.8,5.4-14,5.2-19.2,0.2l4.1,8.3C48.5,39.2,51.3,39.4,54.2,39z"/>
	<path class="st1" d="M19.5,2.9c-0.4-0.8-0.7-1.5-1.1-2.3C18,1.4,17.7,2.2,17.3,3c-0.5,1-0.9,2-1.4,3c-5,11-10.1,21.8-15.1,32.7
		c0.2,0,0.3,0,0.4,0c1.7,0,3.3,0,5,0c0.3,0,0.4-0.1,0.5-0.3c1.1-2.4,9.8-21.7,11.8-26c2,4.4,3.9,8.7,5.9,13c-2.7,0-5.3,0-8,0
		l2.1,5.3c2.7,0,5.3,0,8,0c0.3,0,0.4,0.1,0.5,0.3c1.1,2.4,2.2,4.9,3.3,7.3c0.1,0.2,0.2,0.3,0.5,0.3c0.1,0,0.3,0,0.4,0
		c1.5,0,3.1,0,4.6,0c0.1,0,0.2,0,0.4,0C30.6,26.8,25.1,14.9,19.5,2.9z"/>
</g>
</svg>
