<?xml version="1.0" encoding="utf-8"?>
<!-- Generator: Adobe Illustrator 21.1.0, SVG Export Plug-In . SVG Version: 6.00 Build 0)  -->
<svg version="1.1" id="Capa_1" xmlns="http://www.w3.org/2000/svg" xmlns:xlink="http://www.w3.org/1999/xlink" x="0px" y="0px"
	 viewBox="0 0 72.3 8.3" style="enable-background:new 0 0 72.3 8.3;" xml:space="preserve">
<style type="text/css">
	.st0{fill:#FFFFFF;}
</style>
<g>
	<g>
		<path class="st0" d="M33.9,4.7c0,0.5-0.2,0.9-0.5,1.1c-0.3,0.2-0.7,0.4-1.2,0.4c-0.5,0-0.8-0.1-1.2-0.4c-0.3-0.2-0.5-0.6-0.5-1.1
			V0.5h-1.6v4.6c0,0.8,0.3,1.4,0.9,1.9c0.6,0.5,1.4,0.8,2.3,0.8c0.9,0,1.7-0.3,2.3-0.8s0.9-1.2,0.9-1.9V0.5h-1.4V4.7z"/>
		<path class="st0" d="M42.2,2c0.6,0,1.2,0.2,1.6,0.6h0.1L45,1.4h-0.1c-0.7-0.6-1.7-1-2.7-1s-1.9,0.4-2.6,1.1
			c-0.7,0.7-1.1,1.6-1.1,2.6s0.4,1.9,1.1,2.6c0.7,0.7,1.6,1,2.6,1.1c1,0,2-0.3,2.7-1L45,6.7l-1.1-1.1h-0.1c-0.5,0.4-1,0.6-1.6,0.6
			S41.1,6,40.7,5.6c-0.4-0.4-0.6-0.9-0.6-1.5s0.2-1.1,0.6-1.5S41.6,2,42.2,2"/>
		<polygon class="st0" points="48,1.9 50.4,1.9 50.4,7.7 52,7.7 52,1.9 54.4,1.9 54.4,0.4 48,0.4 		"/>
		<path class="st0" d="M62,4.7c0,0.5-0.2,0.9-0.5,1.1c-0.3,0.2-0.7,0.4-1.2,0.4s-0.8-0.1-1.2-0.4c-0.3-0.2-0.5-0.6-0.5-1.1V0.5H57
			v4.6c0,0.8,0.3,1.4,0.9,1.9s1.4,0.8,2.3,0.8s1.7-0.3,2.3-0.8c0.6-0.5,0.9-1.2,0.9-1.9V0.5H62L62,4.7z"/>
		<path class="st0" d="M71.3,3.9c-0.5-0.3-1.1-0.5-1.7-0.6s-0.9-0.2-1.1-0.4c-0.1-0.2-0.1-0.4,0-0.6c0.1-0.2,0.5-0.4,1-0.4
			c0.6,0,1,0.2,1.3,0.5l0.1,0.1L72,1.4l-0.1-0.1c-0.3-0.3-0.7-0.6-1.1-0.7c-0.4-0.2-0.9-0.2-1.6-0.2c-0.6,0-1.2,0.2-1.7,0.6
			c-0.6,0.4-0.9,0.9-0.9,1.6c0,0.7,0.3,1.2,0.8,1.5s1,0.5,1.6,0.5c0.6,0.1,1,0.2,1.1,0.5c0.1,0.2,0.1,0.5,0,0.7S69.6,6.2,69,6.2
			c-0.7-0.1-1.3-0.3-1.6-0.6l-0.1-0.1l-1.1,1.1l0.1,0.1C66.6,7,67,7.3,67.5,7.5s1,0.3,1.7,0.3s1.4-0.2,1.9-0.6
			c0.5-0.4,0.8-0.9,0.8-1.5C72.1,4.8,71.9,4.2,71.3,3.9"/>
		<polygon class="st0" points="23.4,0.4 21.9,0.4 18.9,7.7 20.6,7.7 21.1,6.6 21.1,6.6 22.4,3.2 22.7,2.6 23.6,5.1 23.6,5.1 
			24.7,7.7 26.4,7.7 		"/>
	</g>
	<g>
		<path class="st0" d="M0.6,0.4H4c0.8,0,1.5,0.2,1.9,0.7c0.3,0.3,0.5,0.7,0.5,1.2l0,0c0,0.8-0.4,1.3-1,1.6c0.8,0.3,1.4,0.8,1.4,1.8
			l0,0c0,1.3-1.1,2-2.7,2H0.6C0.6,7.7,0.6,0.4,0.6,0.4z M3.7,3.4c0.7,0,1.2-0.2,1.2-0.8l0,0c0-0.5-0.4-0.8-1.1-0.8H2.2v1.6H3.7z
			 M4.1,6.3c0.7,0,1.1-0.3,1.1-0.8l0,0C5.2,5,4.8,4.7,4,4.7H2.1v1.6H4.1z"/>
		<path class="st0" d="M9.9,4.9L7.1,0.5H9l1.8,2.9l1.8-2.9h1.8l-2.8,4.4v2.9H9.9V4.9z"/>
	</g>
</g>
</svg>
