<?xml version="1.0" encoding="utf-8"?>
<!-- Generator: Adobe Illustrator 21.1.0, SVG Export Plug-In . SVG Version: 6.00 Build 0)  -->
<svg version="1.1" id="Capa_1" xmlns="http://www.w3.org/2000/svg" xmlns:xlink="http://www.w3.org/1999/xlink" x="0px" y="0px"
	 viewBox="0 0 923 512" style="enable-background:new 0 0 923 512;" xml:space="preserve">
<style type="text/css">
	.st0{fill:#FFFFFF;}
</style>
<g>
	<g>
		<path class="st0" d="M916.7,475.6L771.1,330c28.2-34.8,45.2-79.1,45.2-127.3C816.3,90.9,725.4,0,613.7,0S411,90.9,411,202.7
			s90.9,202.7,202.7,202.7c48.2,0,92.5-17,127.3-45.2l145.6,145.6c4.2,4.2,9.6,6.3,15.1,6.3s10.9-2.1,15.1-6.3
			C925.1,497.4,925.1,483.9,916.7,475.6z M613.7,362.7c-88.2,0-160-71.8-160-160s71.8-160,160-160s160,71.8,160,160
			S701.9,362.7,613.7,362.7z"/>
	</g>
</g>
<g>
	<g>
		<path class="st0" d="M543.7,160.7c-13.3,0-25.2,5.9-33.5,15l-102.7-42.8c0-0.8,0.2-1.6,0.2-2.4c0-25-20.3-45.3-45.3-45.3
			s-45.3,20.3-45.3,45.3c0,6.3,1.3,12.3,3.6,17.7L202.3,256.7c-6.3-3.4-13.5-5.5-21.1-5.5c-5.4,0-10.5,1.1-15.2,2.8L83.9,153.8
			c4.2-6.8,6.7-14.8,6.7-23.3c0-25-20.3-45.3-45.3-45.3S0,105.5,0,130.5s20.3,45.3,45.3,45.3c5.4,0,10.5-1.1,15.3-2.8l82.1,100.3
			c-4.2,6.8-6.7,14.8-6.7,23.3c0,25,20.3,45.3,45.3,45.3s45.3-20.3,45.3-45.3c0-6.3-1.3-12.3-3.6-17.7l118.4-108.6
			c6.3,3.4,13.5,5.5,21.1,5.5c13.3,0,25.2-5.9,33.5-15l102.7,42.8c0,0.8-0.2,1.6-0.2,2.4c0,25,20.3,45.3,45.3,45.3S589,231,589,206
			S568.7,160.7,543.7,160.7z M45.3,145.6c-8.3,0-15.1-6.8-15.1-15.1s6.8-15.1,15.1-15.1s15.1,6.8,15.1,15.1S53.6,145.6,45.3,145.6z
			 M181.2,311.7c-8.3,0-15.1-6.8-15.1-15.1s6.8-15.1,15.1-15.1s15.1,6.8,15.1,15.1S189.6,311.7,181.2,311.7z M362.5,145.6
			c-8.3,0-15.1-6.8-15.1-15.1s6.8-15.1,15.1-15.1c8.3,0,15.1,6.8,15.1,15.1S370.8,145.6,362.5,145.6z M543.7,221.1
			c-8.3,0-15.1-6.8-15.1-15.1s6.8-15.1,15.1-15.1s15.1,6.8,15.1,15.1S552,221.1,543.7,221.1z"/>
	</g>
</g>
</svg>
